<?xml version="1.0" encoding="UTF-8" standalone="no"?><!DOCTYPE svg PUBLIC "-//W3C//DTD SVG 1.1//EN" "http://www.w3.org/Graphics/SVG/1.1/DTD/svg11.dtd"><svg width="100%" height="100%" viewBox="0 0 216 216" version="1.1" xmlns="http://www.w3.org/2000/svg" xmlns:xlink="http://www.w3.org/1999/xlink" xml:space="preserve" xmlns:serif="http://www.serif.com/" style="fill-rule:evenodd;clip-rule:evenodd;stroke-linecap:round;stroke-linejoin:round;stroke-miterlimit:1.5;"><ellipse cx="107.579" cy="110.076" rx="91.596" ry="88.716" style="stroke:#231f20;stroke-width:0.9px;"/><g id="Walkman-trace" serif:id="Walkman trace"><circle cx="115.8" cy="60.75" r="8.55" style="fill:#fff;stroke:#fff;stroke-width:0.83px;"/><path d="M81.065,109.61l-6.983,0.762l0.889,-29.584l26.536,-9.776c0,0 11.808,-7.237 18.411,9.014c6.602,16.252 4.824,15.427 4.824,15.427l19.934,12.951l-1.777,6.031l-21.966,-9.269c0,0 -2.031,-5.205 -5.205,-7.745c-3.175,-2.539 -6.603,12.189 -6.603,12.189c0,0 10.92,18.411 11.174,22.601c0.253,4.189 7.618,38.725 7.618,38.725l-11.047,1.143l-7.745,-33.774l-9.84,-11.173l-19.807,43.677l-7.618,-7.11l17.268,-48.502c0,0 -3.111,-4 -1.587,-13.776c1.523,-9.777 3.809,-15.744 3.809,-15.744l-7.999,1.904l-2.286,22.029" style="fill:#fff;stroke:#fff;stroke-width:0.83px;"/></g></svg>